<svg xmlns="http://www.w3.org/2000/svg"><defs><font id="Karla-BoldItalic" horiz-adv-x="276"><font-face font-family="Karla" font-weight="700" font-style="italic" ascent="800" descent="-200" x-height="487" cap-height="651" bbox="-88 -252 922.849 917" underline-thickness="50" underline-position="-150" unicode-range="U+0020-2212"/><glyph glyph-name=".notdef" horiz-adv-x="533"/><glyph glyph-name=".null" horiz-adv-x="0"/><glyph glyph-name="nonmarkingreturn" horiz-adv-x="533"/><glyph glyph-name="space" horiz-adv-x="229"/><glyph glyph-name="space" horiz-adv-x="229"/><glyph glyph-name="exclam" unicode="!" horiz-adv-x="265" d="M141 668h120l-54-445h-94zM85.5 14Q66 37 69 71.5t26.5 58T153 153t53-23.5 16-58T195 14 138-9 85.5 14z"/><glyph glyph-name="quotedbl" unicode="&quot;" horiz-adv-x="352" d="M203 686l-38-239H85l8 239h110zm184 0l-38-239h-80l8 239h110z"/><glyph glyph-name="numbersign" unicode="#" horiz-adv-x="615" d="M372 163H252L227 33H124l25 130H67l14 80h82l30 156h-83l16 80h82l25 128h103l-25-128h121l25 128h103l-25-128h86l-18-80h-83l-30-156h85l-15-80h-84L451 33H347zm-106 80h121l29 156H296z"/><glyph glyph-name="dollar" unicode="$" horiz-adv-x="625" d="M475 344q66-26 95.5-65.5T594 174q-6-73-64-124-65-56-170-63l-9-89h-76l8 91Q188 0 135 52q-58 56-48 152h109q-5-47 20-71t78-32l18 190-46 18q-73 28-111 68t-31 111.5 63.5 119T346 663l8 76h78l-8-77q164-21 175-193H491q-2 29-21.5 52T415 555l-18-179zm-32-218q24 22 27 50 4 55-56 82l-28 12-15-171q48 5 72 27zM269 531.5Q246 511 243.5 484t10.5-43 42-28l26-13 15 158q-45-6-68-26.5z"/><glyph glyph-name="percent" unicode="%" horiz-adv-x="691" d="M240 664q25 0 47-9.5t37-28.5q35-42 27-116.5t-48.5-112T212 360q-53 0-83 38-34 42-26 114 6 72 48 114 38 38 89 38zm-7-77q-42 0-49-75-9-75 35-75t49 75q7 75-35 75zm321 64h111L206 0H94zm101-513.5Q648 62 608 24t-91-38q-53 0-83 38-35 42-27 117t48.5 112.5 92 37.5 83-39T655 137.5zM538 214q-41 0-48-74-7-76 34-76 18 0 32 17t18.5 58-6.5 58-30 17z"/><glyph glyph-name="ampersand" unicode="&amp;" horiz-adv-x="872" d="M731 343q-51-123-118-205l12-13q28-32 63-32 21 0 38 17.5t22 55.5h99q-10-83-49.5-131.5T689-14q-82 0-149 79-100-79-208-79-101 0-166 57-66 57-58 143 11 130 179 159l-13 15q-58 68-51 143 6 69 63 113 59 46 151 46 91 0 141-46 46-44 40-109t-48-110-120-77l100-112q62 74 111 181zm-388-60q-109-15-113-90-5-41 25-69t88-28q67 0 130 42zm153 206q2 29-16.5 48.5t-54 19.5-58-21-25.5-47.5 6-46 29-40.5l18-20q48 21 72 46.5t29 60.5z"/><glyph glyph-name="quotesingle" unicode="'" horiz-adv-x="166" d="M202 677l-38-240H84l8 240h110z"/><glyph glyph-name="parenleft" unicode="(" horiz-adv-x="364" d="M421 692q-85-90-132-180t-56.5-193T253 127t99-179l-86-67Q95 67 118 319q24 253 231 438z"/><glyph glyph-name="parenright" unicode=")" horiz-adv-x="364" d="M180 757q170-186 148-438Q306 72 97-119L23-52q88 90 135 179t56 192q10 103-20.5 193T94 692z"/><glyph glyph-name="asterisk" unicode="*" horiz-adv-x="368" d="M193 529l-96 37 34 71 85-49-1 118h74l-22-118 93 52 22-73-102-37 69-81-58-52-57 100-78-100-48 52z"/><glyph glyph-name="plus" unicode="+" horiz-adv-x="492" d="M346 491l-17-192h174l-11-107H318L300 0H191l18 192H34l10 107h175l18 192h109z"/><glyph glyph-name="comma" unicode="," horiz-adv-x="232" d="M63 18.5Q47 37 49.5 67t26 51.5T136 140t57-32.5 15.5-79T172-65t-83-74L12-93q75 40 92 88-25 5-41 23.5z"/><glyph glyph-name="hyphen" unicode="-" horiz-adv-x="338" d="M76 356h254l-11-107H66z"/><glyph glyph-name="period" unicode="." horiz-adv-x="196" d="M33 72q2 34 26 57.5t57 23.5 53-23.5T186 72q-3-35-27-58T101-9 47.5 14 33 72z"/><glyph glyph-name="slash" unicode="/" horiz-adv-x="429" d="M349 746h113L151-82H40z"/><glyph glyph-name="zero" unicode="0" horiz-adv-x="573" d="M365 664q112 0 169-83 60-89 44-256-15-166-92-255-74-84-185-84T132 70q-59 87-43 255 16 169 91 256 73 83 185 83zm81-168.5Q417 554 354.5 554T252 495.5t-50.5-170 18-169.5T311 98t102.5 58T464 325.5t-18 170z"/><glyph glyph-name="one" unicode="1" horiz-adv-x="323" d="M301 655L240 0H129l48 509q-48-24-94-24l11 117q70 11 125 53h82z"/><glyph glyph-name="two" unicode="2" horiz-adv-x="546" d="M174 111h334L498 0H54l10 113q8 81 45 128 35 44 107 75l126 51q79 33 85 104 4 36-17.5 61.5T344 558t-75-24-41-71H106q12 100 81 151 67 50 164 50 92 0 146-54 56-56 48.5-137.5t-49-130.5T375 259l-128-52q-36-14-53-31.5T175 129z"/><glyph glyph-name="three" unicode="3" horiz-adv-x="563" d="M341 554q-97 0-121-82H104q19 100 85 146t158 46q98 0 154-50 58-51 50-132-11-105-110-141 51-20 79.5-59.5t24-91-25-87.5T465 41q-70-55-175-55-100 0-163 56-70 61-61 163h118q-2-50 29-78.5T299.5 98t88.5 27 38 69q4 42-22 65t-86 23h-79l9 96h69q51 0 81 24t33.5 63.5-18 64T341 554z"/><glyph glyph-name="four" unicode="4" horiz-adv-x="538" d="M486 658l-38-411h101l-9-104H439L425 0H316l13 143H33l8 92 339 423h106zM171 235h173l22 243z"/><glyph glyph-name="five" unicode="5" horiz-adv-x="526" d="M245 397q52 9 94 9 91 0 140-49t40-140q-8-98-76-164-69-67-169-67-98 0-151 55-55 57-47 155h113q-5-50 22.5-74T284 98q48 0 84 34 33 32 39 85 8 97-110 97H117l58 337h354l-11-112H271z"/><glyph glyph-name="six" unicode="6" horiz-adv-x="549" d="M441 471q-4 83-75 83-77 0-125-85-49-87-49-228 35 159 178 159 83 0 130-58 46-58 38-149-10-94-74-150-65-57-159-57-110 0-173 92-61 92-47 236 16 167 95 260 77 90 193 90 87 0 139-53 50-52 46-140H441zM334 300q-42 0-73.5-28T225 198q-4-43 22-72 24-28 67-28t74 27.5 36 74-21.5 73.5-68.5 27z"/><glyph glyph-name="seven" unicode="7" horiz-adv-x="450" d="M496 651l-12-117L186 0H39l316 533H72l11 118h413z"/><glyph glyph-name="eight" unicode="8" horiz-adv-x="585" d="M574 477q-5-49-39-87t-91-49l3-2q66-30 93-65 31-39 26-90.5T541.5 98 488 39q-74-53-190-53-112 0-176 54-63 54-55 136 7 61 49 98t102 45q-75 41-96 109-8 26-5 58 8 83 72 130.5T356 664t164.5-52.5T574 477zM309 277q-52-3-88-28.5T182 188q-4-40 34-66 34-24 98-24t99.5 19 38 46.5T440 208t-41 30zm-68 233q-10-13-12-33-4-38 53-63l64-29q42 0 76 24 34 25 37.5 62T433 531t-81 23q-77 0-111-44z"/><glyph glyph-name="nine" unicode="9" horiz-adv-x="552" d="M334 664q50 0 93.5-23.5T501 574q65-94 51-238Q527 84 384 10q-47-24-100-24T193 1t-65 43q-57 59-47 149h115q-3-45 21.5-70t63-25 66 17.5T394 166q36 61 49 180 4 28 2 57-41-152-180-152-82 0-128 57.5T99 457q8 92 73 150 65 57 162 57zm-85.5-138.5Q217 498 212 451t22-73.5 68-26.5 73 28 37 73q4 46-23 74-26 27-67.5 27t-73-27.5z"/><glyph glyph-name="colon" unicode=":" horiz-adv-x="246" d="M58 88q2 34 26 57.5t57 23.5 53-23.5T211 87t-27-58-58-23-53.5 23T58 88zm29 296q2 34 26 57.5t57 23.5 53-23.5 17-58.5-27-57.5-58-22.5-53.5 22.5T87 384z"/><glyph glyph-name="semicolon" unicode=";" horiz-adv-x="281" d="M90.5 18.5Q74 37 76.5 67t26 51.5T153 140t42.5-9 25.5-24q20-30 15.5-77.5t-37-94.5-83.5-74L40-93q74 41 91 88-24 5-40.5 23.5zm38 307Q109 348 112 383t27 58.5 57.5 23.5 53.5-23.5 17-58.5-27.5-57.5-58-22.5-53 22.5z"/><glyph glyph-name="less" unicode="&lt;" horiz-adv-x="456" d="M466 528L184 324l243-204-82-93L66 269l11 111 324 241z"/><glyph glyph-name="equal" unicode="=" horiz-adv-x="457" d="M404 199L393 93H79l10 106h315zm20 212l-9-105H100l9 105h315z"/><glyph glyph-name="greater" unicode="&gt;" horiz-adv-x="456" d="M171 621l279-241-10-111L114 27l-63 93 281 204L90 528z"/><glyph glyph-name="question" unicode="?" horiz-adv-x="467" d="M484 482q-5-54-31.5-89.5T373 330q-46-24-60-41-23-30-25-64l-2-28H175l4 40q8 90 61 129 18 13 42 25.5t39 23 24 21.5q16 18 19 47.5t-17.5 50T283 554t-70.5-23.5T179 469H65q13 89 71 142t155 53 149-52 44-130zM171.5 124.5q23.5 22.5 57 22.5t53.5-22.5T298 67q-2-35-26.5-58t-59-23T160 9t-15 58 26.5 57.5z"/><glyph glyph-name="at" unicode="@" horiz-adv-x="932" d="M586 279q7 68-41 68-42 0-81-41-44-47-50-113-3-44 15-67t49.5-23 53.5 19 44 58zM398 631q85 33 175.5 33T731 635t112-79q92-104 78-263-11-133-88-215Q762 4 675 4q-43 0-68.5 17.5T574 70l-3 16q-21-38-49-60T456 4t-63.5 14T349 57q-42 56-34 134 10 104 82 177 70 72 160 72 61 0 93.5-39.5T675 280l-13-129q-5-51 26-51 35 0 71 44 43 54 52 149 12 114-50 186-67 76-192 76-149 0-253-102T198 200Q184 56 265-31q84-90 246-90l-9-101q-103 0-183.5 33.5T184-96.5t-79 137T89 215t51 180 107.5 143.5T398 631z"/><glyph glyph-name="A" unicode="A" horiz-adv-x="568" d="M280 651h138L549 0H432l-27 138H189L135 0H20zm-54-421h161l-54 277z"/><glyph glyph-name="B" unicode="B" horiz-adv-x="585" d="M144 651h239q98 0 147-51 44-45 38-122-5-55-36-94t-82-55q48-11 76.5-49.5T549 181Q537 59 426 16 384 0 322 0H83zm185-545q93 0 102 82 4 38-17 60.5T344 271H218l-16-165h127zM228 378h124q47 0 72.5 22.5t29.5 61-17 61.5-69 23H244z"/><glyph glyph-name="C" unicode="C" horiz-adv-x="573" d="M373 664q54 0 92.5-14.5T530 608q54-53 60-143l-119-24q-8 51-34.5 82T365 554q-60 0-103-56-44-60-56-171-9-109 20-169.5T316.5 97t95 33.5T450 215h118q-11-110-79-169.5T311-14q-117 0-177.5 90T89 327t95 251q76 86 189 86z"/><glyph glyph-name="D" unicode="D" horiz-adv-x="619" d="M336 651q133 0 207.5-88T604 325Q590 179 499 88 409 0 275 0H82l61 651h193zM203 111h82q82 0 137 61 53 57 63 153 8 97-34 155-45 60-127 60h-81z"/><glyph glyph-name="E" unicode="E" horiz-adv-x="529" d="M143 651h379l-10-105H243l-16-167h252l-10-106H217l-16-167h269L461 0H82z"/><glyph glyph-name="F" unicode="F" horiz-adv-x="494" d="M144 651h371l-10-105H244l-16-168h238l-11-104H218L193 0H83z"/><glyph glyph-name="G" unicode="G" horiz-adv-x="612" d="M466 106Q418-14 310-14q-111 0-173 92-65 97-51 244 16 156 103 250 84 92 207 92 84 0 136-40t74-128l-115-28q-37 86-112 86-66 0-115-62-52-68-60-170-10-101 24.5-162.5T324 98t101 38 50 107q0 9 9 9l17-1q-8-94-36-160 0 40 5.5 81.5T476 255l-130 3 7 78h235L557 0h-89q-1 26-1 53t-1 53z"/><glyph glyph-name="H" unicode="H" horiz-adv-x="638" d="M254 651l-26-270h253l26 270h109L555 0H445l25 274H218L193 0H83l61 651h110z"/><glyph glyph-name="I" unicode="I" d="M144 651h110L193 0H83z"/><glyph glyph-name="J" unicode="J" horiz-adv-x="404" d="M158-14Q88-14 17 27l12 121q62-43 130-43 38 0 57.5 24t24.5 75l42 447h112l-43-447Q330-14 158-14z"/><glyph glyph-name="K" unicode="K" horiz-adv-x="593" d="M255 651l-25-265 253 265h150L348 358 589 0H447L266 273l-51-53L194 0H83l61 651h111z"/><glyph glyph-name="L" unicode="L" horiz-adv-x="447" d="M202 106h239L432 0H83l61 651h110z"/><glyph glyph-name="M" unicode="M" horiz-adv-x="789" d="M301 651l121-382 193 382h152L706 0H595l45 490L438 70h-71L240 506 193 0H83l61 651h157z"/><glyph glyph-name="N" unicode="N" horiz-adv-x="648" d="M262 651l212-456 43 456h110L566 0H455L235 472 191 0H81l61 651h120z"/><glyph glyph-name="O" unicode="O" horiz-adv-x="618" d="M387 664q122 0 185-85 67-88 51-253-15-166-99-256-78-84-201-84-121 0-185 86-65 88-49 254 15 166 98 255 77 83 200 83zm96.5-169Q447 555 377 555t-117.5-60.5-58-170.5T227 155t106.5-59T451 155.5 509 325t-25.5 170z"/><glyph glyph-name="P" unicode="P" horiz-adv-x="525" d="M500.5 597.5q50.5-53.5 41-154T471 289t-161-54h-97L191 0H80l61 651h209q100 0 150.5-53.5zM321 342q48 0 75.5 28t31.5 73q5 45-17.5 74T339 546h-97l-19-204h98z"/><glyph glyph-name="Q" unicode="Q" horiz-adv-x="620" d="M491-61q39 0 89 23l-12-125q-40-18-83-18t-79 26.5T346-79l-32 65q-117 2-178 88-63 89-47 252 15 166 98 255 77 83 200 83 122 0 185-85 67-88 51-253-14-135-68-215.5T419 1l11-23q19-37 61-39zm-7.5 556Q447 555 377 555t-117.5-60.5-58-170.5T227 155t106.5-59T451 155.5 509 325t-25.5 170z"/><glyph glyph-name="R" unicode="R" horiz-adv-x="583" d="M563 451q-8-70-46.5-119T410 263L542 0H399L295 253h-79L193 0H83l61 651h218q106 0 157.5-54.5T563 451zM321 334q58 0 90.5 29t37.5 76q3 48-20.5 77.5T352 546H244l-21-212h98z"/><glyph glyph-name="S" unicode="S" horiz-adv-x="577" d="M443 469q-7 85-99 85-45 0-72-20t-30-48.5 12-44 48-29.5l123-56q63-29 93.5-71.5T543 178q-8-90-73-141T294-14q-98 0-154 53-63 60-55 165h109q-5-55 27.5-80.5T303 98t81.5 20 36 54-11.5 51.5-51 33.5l-113 52q-66 29-98 68.5T121 486q8 80 70 128 63 50 163 50t149-51.5T551 469H443z"/><glyph glyph-name="T" unicode="T" horiz-adv-x="482" d="M67 651h471l-10-105H347L295 0H186l52 546H57z"/><glyph glyph-name="U" unicode="U" horiz-adv-x="624" d="M256 651l-39-404q-11-113 64-141 23-8 51-8 57 0 96.5 34.5T476 247l39 404h109l-38-404q-12-125-81-193T322.5-14 153 54t-45 193l39 404h109z"/><glyph glyph-name="V" unicode="V" horiz-adv-x="550" d="M196 651l92-498 190 498h115L332 0H216L79 651h117z"/><glyph glyph-name="W" unicode="W" horiz-adv-x="875" d="M203 651l80-490 166 449h75l88-451 183 492h124L657 0H541l-74 362L325 0H211L80 651h123z"/><glyph glyph-name="X" unicode="X" horiz-adv-x="620" d="M589 0H452L320 228 163 0H30l235 324L90 651h134l124-232 149 232h132L402 326z"/><glyph glyph-name="Y" unicode="Y" horiz-adv-x="549" d="M207 651l101-256 157 256h130L350 269 325 0H215l26 269L77 651h130z"/><glyph glyph-name="Z" unicode="Z" horiz-adv-x="569" d="M75 105l348 434H116l11 112h445l-11-104-346-435h305L511 0H66z"/><glyph glyph-name="bracketleft" unicode="[" horiz-adv-x="320" d="M158 796h227l-11-110H257L189-34h117l-11-111H69z"/><glyph glyph-name="backslash" unicode="\" horiz-adv-x="429" d="M91 747h111L513-81H400z"/><glyph glyph-name="bracketright" unicode="]" horiz-adv-x="307" d="M226-145H-1L11-34h117l75 720H86l11 110h228z"/><glyph glyph-name="asciicircum" unicode="^" horiz-adv-x="481" d="M38 215l217 390h89l143-390H366l-81 245-127-245H38z"/><glyph glyph-name="underscore" unicode="_" horiz-adv-x="695" d="M45-55h597l-10-106H35z"/><glyph glyph-name="grave" unicode="`" horiz-adv-x="324" d="M145 904l231-132-36-76L96 799z"/><glyph glyph-name="a" unicode="a" horiz-adv-x="528" d="M264 285q44 0 107-18l5 46q1 7 1 13v11q0 38-16.5 56T306 411t-62-18.5-28-50.5H96q9 83 65.5 120.5T306 500q181 0 181-163v-13q0-7-1-15L457 0h-95q-2 16-2 32t-1 33q-52-79-136-79-80 0-123 41-40 38-40 99 0 80 62 122 53 37 142 37zm100-96q-48 16-80 16t-48.5-4-29.5-12q-29-18-29-47t19-46 49-17 48.5 8.5T327 111q31 31 37 78z"/><glyph glyph-name="b" unicode="b" horiz-adv-x="556" d="M233 427q50 73 131 73 75 0 122-60 48-61 48-159 0-105-56-193-28-44-71-73t-92-29q-97 0-127 98L154 0H83l64 686h111zm-14-150l-5-55q-2-18-2-29.5t6-30 18-33.5q25-33 60-33t58 16 38 42q30 50 30 110.5t-25.5 93T330 390t-73-30-38-83z"/><glyph glyph-name="c" unicode="c" horiz-adv-x="478" d="M196.5 475q43.5 25 93.5 25t81.5-16 52.5-42q41-51 41-124H353q-4 30-20 51t-48 21q-58 0-88-63-23-48-23-109.5t24-91.5 61.5-30 57.5 21.5 24 56.5h110q-8-82-60-132-57-56-143-56-80 0-131 60-54 64-54 163 0 116 61 200 29 41 72.5 66z"/><glyph glyph-name="d" unicode="d" horiz-adv-x="555" d="M375 77q-49-91-132-91-77 0-127 61-51 62-51 163 0 108 56 194 64 96 163 96 82 0 117-72l25 258h111L472 0h-90zm-13.5 286q-25.5 27-60 27t-58-16.5T206 332q-29-48-29-107.5t25.5-94T270 96q37 0 70 31 34 32 40 82l6 62q1 5 1 9v7q0 49-25.5 76z"/><glyph glyph-name="e" unicode="e" horiz-adv-x="478" d="M170 213q-1-5-1-10v-10q0-49 21.5-79T248 84q73 0 89 61h111q-16-70-72-114-56-45-129-45-79 0-131 60-53 61-53 162 0 114 61 200 65 92 171 92 83 0 127-60 41-54 41-140 0-41-11-87H170zm45 158q-28-32-37-81h183q1 5 1 10v17l-3.5 28.5L346 375q-19 28-61 28t-70-32z"/><glyph glyph-name="f" unicode="f" horiz-adv-x="331" d="M360 589q-25 9-44.5 9t-36-12.5T260 541l-5-54h80l-8-82h-80L210 0H100l37 405H73l8 82h64l6 55q7 75 51 116 38 36 97 36 43 0 91-11z"/><glyph glyph-name="g" unicode="g" horiz-adv-x="526" d="M139 200q-42 42-42 106 0 87 65 142 61 52 142 52 57 0 104-28 12 57 54 93 40 35 92 35l-16-117q-77 0-85-55 26-39 26-84t-18-80.5-47-60.5q-62-52-143-52-41 0-77 14-40-16-40-51 0-40 63-40h145q141 0 141-103 0-98-91-164-81-59-183-59-106 0-169 46Q3-164 3-97 3-26 67 6q18 9 37 12-44 33-44 77.5t24.5 70T139 200zm.5-231.5Q112-51 112-84.5t33-51.5 93-18q57 0 102 28 53 31 53 81 0 15-10 24t-29 9H205q-38 0-65.5-19.5zM369 337q0 78-77 78-41 0-63.5-29T206 318q0-81 75-81 44 0 66 30t22 70z"/><glyph glyph-name="h" unicode="h" horiz-adv-x="563" d="M231 410q53 90 144 90 79 0 117-60 34-54 26-156L492 0H382l26 284q5 53-15 79.5T333.5 390t-73-35.5T216 245v-3L193 0H83l64 686h111z"/><glyph glyph-name="i" unicode="i" horiz-adv-x="298" d="M139 488h109L202 0H93zm0 155q4 32 23.5 51.5T214 714t47.5-19.5T274 642q-2-32-22-51t-52-19q-31 0-47 19t-14 52z"/><glyph glyph-name="j" unicode="j" horiz-adv-x="303" d="M158 591q-16 19-13.5 51.5t22.5 52 52 19.5 48-19.5 12-51.5q-2-33-21.5-52T206 572t-48 19zM-76-116q48-29 87-29t58 20 24 70l51 544h110L202-57q-11-105-54.5-150T34-252q-58 0-122 31z"/><glyph glyph-name="k" unicode="k" horiz-adv-x="518" d="M262 235l-51-43L193 0H83l64 686h111l-35-367 185 168h149L346 307 521 0H388z"/><glyph glyph-name="l" unicode="l" d="M147 686h111L193 0H83z"/><glyph glyph-name="m" unicode="m" horiz-adv-x="855" d="M511 396q52 104 159 104 78 0 116-60 34-54 26-156L786 0H675l26 284q5 53-15 79.5T624 390t-73-41.5T512 219L492 0H382l26 284q6 53-14.5 79.5T331 390t-76-43-42-131L193 0H83l46 487h96q1-21 1.5-41.5T228 405q53 95 147 95 55 0 88.5-28t47.5-76z"/><glyph glyph-name="n" unicode="n" horiz-adv-x="563" d="M228 405q53 95 147 95 79 0 117-60 34-54 26-156L492 0H382l26 284q6 53-14.5 79.5T331 390t-76-43-42-131L193 0H83l46 487h96z"/><glyph glyph-name="o" unicode="o" horiz-adv-x="511" d="M314 500q45 0 82.5-15.5T460 437q56-68 44-195-11-122-80-192-64-64-157-64-94 0-146 64-56 68-44 192 11 126 80 195 63 63 157 63zm64-143.5Q355 394 308.5 394t-80-37.5T187 243t16-113.5T273 92t79.5 37.5 41 113.5T378 356.5z"/><glyph glyph-name="p" unicode="p" horiz-adv-x="550" d="M224 421q46 79 132 79 80 0 132-68 55-73 44-189-11-117-80-189-65-68-144.5-68T196 37l-26-274H60l69 724h90q3-47 5-66zm-13-225l-1-5q-2-45 24-70t62-25q44 0 78 36 40 42 47 111t-19.5 108-71.5 39-75.5-29-35.5-83z"/><glyph glyph-name="q" unicode="q" horiz-adv-x="551" d="M374 63q-37-77-117-77-85 0-137 68-55 73-44 189t79 189q62 68 144 68 41 0 73.5-21.5T422 412l32 75h71L472-74q-4-45 4-57 13-20 46-32l-39-89q-74 21-101.5 65T362-65zm1 297q-25 30-69.5 30T227 351t-41-108q-7-68 25-111 28-36 72-36 37 0 68 26 31 28 35 74l8 80q6 54-19 84z"/><glyph glyph-name="r" unicode="r" horiz-adv-x="377" d="M382 367q-20 5-48 5-106 0-121-159L193 0H83l46 488h110l-9-97q24 54 57.5 79.5T358 496q18 0 37-7z"/><glyph glyph-name="s" unicode="s" horiz-adv-x="474" d="M420 458.5Q462 417 457 354H354q0 23-17 37t-51 14-54-14.5-22-34.5q-4-34 45-50l102-44q48-19 73-48.5t21.5-67.5T432 80.5 389 32q-58-46-145-46T107 28.5 64 149h102q-3-35 18.5-51T244 82t60 16 24.5 37.5T319 168t-39 21l-93 39Q85 270 95 362q6 63 59 100 55 38 139.5 38T420 458.5z"/><glyph glyph-name="t" unicode="t" horiz-adv-x="357" d="M332 12q-61-26-96-26t-60 9-43 27q-39 40-31 114l25 270H67l8 81h60l12 127h110l-12-127h117l-8-81H236l-24-266q-6-58 45-58 26 0 67 16z"/><glyph glyph-name="u" unicode="u" horiz-adv-x="566" d="M386 86Q336-9 245-9 128-9 101 91q-10 35-5 86l30 311h109l-29-298q-4-47 14.5-70t59-23 77.5 39.5T402 256l22 232h110L489 0H378z"/><glyph glyph-name="v" unicode="v" horiz-adv-x="468" d="M183 487l62-366 133 366h126L296 0H173L57 487h126z"/><glyph glyph-name="w" unicode="w" horiz-adv-x="685" d="M171 487l54-344 112 316h100l52-319 120 347h110L529 0H421l-53 287L264 0H156L57 487h114z"/><glyph glyph-name="x" unicode="x" horiz-adv-x="503" d="M488 0H354l-92 153L148 0H13l194 242L59 488h136l90-154 115 154h134L341 242z"/><glyph glyph-name="y" unicode="y" horiz-adv-x="456" d="M187 487l70-347 123 347h112L268-87q-35-88-76-126.5T93-252t-115 32l11 107q44-32 91-32 57 0 94 98l18 47L62 487h125z"/><glyph glyph-name="z" unicode="z" horiz-adv-x="447" d="M61 99l250 289H87l10 99h345l-10-99L189 99h217L396 0H51z"/><glyph glyph-name="braceleft" unicode="{" horiz-adv-x="356" d="M337-158q-119 0-173 72-50 64-39 182l8 91q5 42 0 57t-22 15H87l12 124h23q18 0 25 15t11 57l9 92q11 116 73 182 67 71 188 71l-11-111q-66 0-99.5-34.5T276 545l-9-96q-9-92-73-126l1-5q24-14 38.5-45.5T243 193l-9-96q-8-74 19.5-109T347-47z"/><glyph glyph-name="bar" unicode="|" d="M157 773h109l-85-895H71z"/><glyph glyph-name="braceright" unicode="}" horiz-adv-x="412" d="M210 323q-47 29-49 100v13q0 5 1 13l9 96q2 16 2 23v13q-2 56-29.5 82T58 689l10 111q106 0 162-57 50-51 52-149v-23q0-12-2-25l-8-91q-2-20-2-37.5t5-26 19-8.5h23l-11-124h-23q-18 0-25-15t-11-57l-9-92Q219-87 86-140q-46-18-109-18l11 111q66 0 100 34.5T129 97l9 96q5 48 25 79.5t47 45.5v5z"/><glyph glyph-name="asciitilde" unicode="~" horiz-adv-x="518" d="M192 263q-33 0-63-61l-55 35q23 66 53.5 104.5T204 380q31 0 78-21 74-33 97-33 37 0 63 56l56-42q-49-129-139-129-33 0-89 28l-48 18q-16 6-30 6z"/><glyph glyph-name="sterling" unicode="£" horiz-adv-x="545" d="M31 111h28q34 0 48.5 21t19.5 65l8 85H61l7 82h74l8 81q11 109 67 164t135 55q159 0 163-177H407q-2 32-17.5 49.5t-46 17.5-54.5-26.5-29-82.5l-8-81h153l-7-82H245l-7-76q-8-67-42-95h119q45 0 65.5 18t28.5 58h121Q514 48 401 12 361 0 306 0H20z"/><glyph glyph-name="dieresis" unicode="¨" horiz-adv-x="349" d="M115.5 788q-16.5 19-14 48.5T124 885t49 19 45-19 13.5-48.5-23-48.5-48.5-19-44.5 19zM278 837q2 29 22.5 48.5t49 19.5 44.5-19.5 13.5-48.5-22-48-48-19-45.5 19-14 48z"/><glyph glyph-name="acute" unicode="´" horiz-adv-x="324" d="M377 799L113 696l-20 76 256 132z"/><glyph glyph-name="Agrave" unicode="À" horiz-adv-x="568" d="M280 651h138L549 0H432l-27 138H189L135 0H20zm-9 253l231-132-36-76-245 103zm-45-674h161l-54 277z"/><glyph glyph-name="Aacute" unicode="Á" horiz-adv-x="568" d="M280 651h138L549 0H432l-27 138H189L135 0H20zm222 148L238 696l-19 76 256 132zM226 230h161l-54 277z"/><glyph glyph-name="Acircumflex" unicode="Â" horiz-adv-x="568" d="M280 651h138L549 0H432l-27 138H189L135 0H20zm268 105l-76-61-111 100-130-100-63 61 205 161zM226 230h161l-54 277z"/><glyph glyph-name="Atilde" unicode="Ã" horiz-adv-x="568" d="M280 651h138L549 0H432l-27 138H189L135 0H20zm22 131q-33 0-61-50l-40 29q17 62 46.5 96t64.5 34q22 0 63-23 20-13 31.5-19t23.5-6q29 0 52 48l42-34q-21-82-74-115-15-10-30-10-26 0-58.5 20T320 777t-18 5zm-76-552h161l-54 277z"/><glyph glyph-name="Adieresis" unicode="Ä" horiz-adv-x="568" d="M280 651h138L549 0H432l-27 138H189L135 0H20zm-54-421h161l-54 277zm-4.5 539q-16.5 19-14 48.5t22.5 49 49 19.5 45-19.5 13.5-49-23-48.5-48.5-19-44.5 19zM384 818q2 29 22.5 49t49 20 44.5-20 13.5-49-22-48-48-19-45.5 19-14 48z"/><glyph glyph-name="Egrave" unicode="È" horiz-adv-x="531" d="M143 651h379l-10-105H243l-16-167h252l-10-106H217l-16-167h269L461 0H82zm113 253l231-132-36-76-244 103z"/><glyph glyph-name="Eacute" unicode="É" horiz-adv-x="531" d="M82 0h379l9 106H201l16 167h252l10 106H227l16 167h269l10 105H143zm406 799L224 696l-20 76 256 132z"/><glyph glyph-name="Ecircumflex" unicode="Ê" horiz-adv-x="531" d="M153 651h379l-11-105H252l-15-167h252l-11-106H226l-15-167h269L471 0H92zm390 105l-77-61-110 100-130-100-63 61 204 161z"/><glyph glyph-name="Edieresis" unicode="Ë" horiz-adv-x="531" d="M143 651h379l-10-105H243l-16-167h252l-10-106H217l-16-167h269L461 0H82zm65.5 118q-16.5 19-14 48.5t22.5 49 49 19.5 45-19.5 13.5-49-23-48.5-48.5-19-44.5 19zM371 818q2 29 22.5 49t49 20 45-20 12.5-49q-2-29-21.5-48t-48-19-45.5 19-14 48z"/><glyph glyph-name="Igrave" unicode="Ì" d="M144 651h110L193 0H83zm-23 253l231-132-36-76L72 799z"/><glyph glyph-name="Iacute" unicode="Í" d="M83 0h110l61 651H144zm270 799L89 696l-19 76 255 132z"/><glyph glyph-name="Icircumflex" unicode="Î" d="M144 651h110L193 0H83zm256 105l-77-61-110 100L83 695l-63 61 204 161z"/><glyph glyph-name="Idieresis" unicode="Ï" d="M148 651h110L197 0H87zM67 817q2 30 21.5 49.5T137 886t45.5-19.5T196 818q-2-30-22.5-49T124 750q-28 0-44.5 19T67 817zm176 1q2 29 22.5 49t48.5 20q29 0 45-20t13-49q-2-29-22-48t-48-19q-29 0-45.5 19T243 818z"/><glyph glyph-name="Ntilde" unicode="Ñ" horiz-adv-x="651" d="M142 651L81 0h110l44 472L455 0h111l61 651H517l-43-456-212 456H142zm198 131q-32 0-61-50l-40 29q17 62 46.5 96t64.5 34q22 0 63-23 38-25 55-25 29 0 52 48l42-34q-22-84-74-115-15-10-30.5-10t-30.5 7-37.5 20.5-31.5 18-18 4.5z"/><glyph glyph-name="Ograve" unicode="Ò" horiz-adv-x="618" d="M387 664q122 0 185-85 67-88 51-253-15-166-99-256-78-84-201-84-121 0-185 86-65 88-49 254 15 166 98 255 77 83 200 83zm96.5-169Q447 555 377 555t-117.5-60.5-58-170.5T227 155t106.5-59T451 155.5 509 325t-25.5 170zM307 904l231-132-36-76-244 103z"/><glyph glyph-name="Oacute" unicode="Ó" horiz-adv-x="618" d="M379 664q-189 0-265-188-25-64-33-149t5-149 44-106q64-86 185-86 123 0 201 84 84 90 99 256 16 165-51 253-63 85-185 85zM251.5 494.5Q299 555 369 555t106.5-60T501 325t-58-169.5T325.5 96 219 155t-25.5 169 58 170.5zM530 799L266 696l-19 76 256 132z"/><glyph glyph-name="Ocircumflex" unicode="Ô" horiz-adv-x="618" d="M387 664q122 0 185-85 67-88 51-253-15-166-99-256-78-84-201-84-121 0-185 86-65 88-49 254 15 166 98 255 77 83 200 83zm96.5-169Q447 555 377 555t-117.5-60.5-58-170.5T227 155t106.5-59T451 155.5 509 325t-25.5 170zM586 756l-77-61-110 100-131-100-63 61 205 161z"/><glyph glyph-name="Otilde" unicode="Õ" horiz-adv-x="618" d="M386 664q-59 0-109.5-20.5T187 581q-83-89-98-255-16-164 49-254 62-86 185-86t201 84q84 90 99 256 16 165-51 253-63 85-186 85zM259.5 495q46.5 60 117 60t107-60T509 325t-58-169.5T333 96t-106 59-24.5 169.5 57 170.5zM339 782q-32 0-60-50l-41 29q17 62 46.5 96t64.5 34q22 0 53-18t42-24 23-6q29 0 52 48l42-34q-22-84-73-115-16-10-32-10-26 0-69 28-37 22-48 22z"/><glyph glyph-name="Odieresis" unicode="Ö" horiz-adv-x="618" d="M387 664q122 0 185-85 67-88 51-253-15-166-99-256-78-84-201-84-121 0-185 86-65 88-49 254 15 166 98 255 77 83 200 83zm96.5-169Q447 555 377 555t-117.5-60.5-58-170.5T227 155t106.5-59T451 155.5 509 325t-25.5 170zm-223 274q-16.5 19-14 48.5t22.5 49 49 19.5 45-19.5 13.5-49-23-48.5-48.5-19-44.5 19zM423 818q2 29 22.5 49t49 20 45-20 12.5-49q-2-29-21.5-48t-48-19-45.5 19-14 48z"/><glyph glyph-name="Ugrave" unicode="Ù" horiz-adv-x="624" d="M256 651l-39-404q-11-113 64-141 23-8 51-8 57 0 96.5 34.5T476 247l39 404h109l-38-404q-12-125-81-193T322.5-14 153 54t-45 193l39 404h109zm50 253l231-132-36-76-244 103z"/><glyph glyph-name="Uacute" unicode="Ú" horiz-adv-x="624" d="M147 651l-39-404Q97 122 153 54t169.5-68T505 54t81 193l38 404H515l-39-404q-8-80-47.5-114.5T332 98q-92 0-112 81-7 28-3 68l39 404H147zm390 148L273 696l-19 76 256 132z"/><glyph glyph-name="Ucircumflex" unicode="Û" horiz-adv-x="624" d="M256 651l-39-404q-11-113 64-141 23-8 51-8 57 0 96.5 34.5T476 247l39 404h109l-38-404q-12-125-81-193T322.5-14 153 54t-45 193l39 404h109zm330 105l-77-61-110 100-130-100-63 61 204 161z"/><glyph glyph-name="Udieresis" unicode="Ü" horiz-adv-x="624" d="M256 651l-39-404q-11-113 64-141 23-8 51-8 57 0 96.5 34.5T476 247l39 404h109l-38-404q-12-125-81-193T322.5-14 153 54t-45 193l39 404h109zm5.5 118q-16.5 19-14 48.5t22.5 49 49 19.5 45.5-19.5T379 817q-4-29-24-48t-48.5-19-45 19zM425 818q2 29 22 49t48.5 20 45-20 14-49-22.5-48-48.5-19-45 19-13.5 48z"/><glyph glyph-name="agrave" unicode="à" horiz-adv-x="529" d="M260 285q54 0 117-18l5 46q5 51-10.5 74.5t-57 23.5-65-18.5T222 342H102q8 83 64.5 120.5t148 37.5 139-46.5T492 309L463 0h-96q-1 16-1 32t-1 33q-52-79-136-79-86 0-129 47-40 44-34 111.5t57.5 104T260 285zm-16 482l230-132-36-76-244 103zm126-578q-48 16-90 16-91 0-97-62-2-26 16.5-45t50-19 50 8.5T333 111q31 31 37 78z"/><glyph glyph-name="aacute" unicode="á" horiz-adv-x="529" d="M260 285q54 0 117-18l5 46q5 51-10.5 74.5t-57 23.5-65-18.5T222 342H102q8 83 64.5 120.5t148 37.5 139-46.5T492 309L463 0h-96q-1 16-1 32t-1 33q-52-79-136-79-86 0-129 47-40 44-34 111.5t57.5 104T260 285zm215 377L211 559l-19 76 256 132zM370 189q-48 16-90 16-91 0-97-62-2-26 16.5-45t50-19 50 8.5T333 111q31 31 37 78z"/><glyph glyph-name="acircumflex" unicode="â" horiz-adv-x="529" d="M260 285q54 0 117-18l5 46q5 51-10.5 74.5t-57 23.5-65-18.5T222 342H102q8 83 64.5 120.5t148 37.5 139-46.5T492 309L463 0h-96q-1 16-1 32t-1 33q-52-79-136-79-86 0-129 47-40 44-34 111.5t57.5 104T260 285zm262 334l-76-61-111 100-130-100-63 61 205 161zM370 189q-48 16-90 16-91 0-97-62-2-26 16.5-45t50-19 50 8.5T333 111q31 31 37 78z"/><glyph glyph-name="atilde" unicode="ã" horiz-adv-x="529" d="M260 285q54 0 117-18l5 46q5 51-10.5 74.5t-57 23.5-65-18.5T222 342H102q8 83 64.5 120.5t148 37.5 139-46.5T492 309L463 0h-96q-1 16-1 32t-1 33q-52-79-136-79-86 0-129 47-40 44-34 111.5t57.5 104T260 285zm16 360q-33 0-61-50l-40 29q17 63 46.5 97t64.5 34q24 0 53.5-18.5t41-24.5 23.5-6q29 0 52 49l42-34q-22-83-74-117-15-9-31-9-22 0-56 20t-43 25-18 5zm94-456q-48 16-90 16-91 0-97-62-2-26 16.5-45t50-19 50 8.5T333 111q31 31 37 78z"/><glyph glyph-name="adieresis" unicode="ä" horiz-adv-x="529" d="M260 285q54 0 117-18l5 46q5 51-10.5 74.5t-57 23.5-65-18.5T222 342H102q8 83 64.5 120.5t148 37.5 139-46.5T492 309L463 0h-96q-1 16-1 32t-1 33q-52-79-136-79-86 0-129 47-40 44-34 111.5t57.5 104T260 285zm110-96q-48 16-90 16-91 0-97-62-2-26 16.5-45t50-19 50 8.5T333 111q31 31 37 78zM198 632.5q-16 18.5-13.5 48t22.5 49 48 19.5 45-19.5 14.5-49-23.5-48-49-18.5-44 18.5zM361 681q2 29 22.5 49t49 20 44-20 13-49-21.5-47.5-47.5-18.5-45.5 18.5-14 47.5z"/><glyph glyph-name="egrave" unicode="è" horiz-adv-x="478" d="M182 213q-5-57 16.5-93T268 84q29 0 51 15t30 46h111q-16-70-72-114-56-45-129-45-86 0-139 70-55 74-43 187 12 119 78 189 64 68 152 68 91 0 135-72 51-82 22-215H182zm41 565l231-132-36-77-244 104zm75-375q-43 0-71-32t-37-81h183q7 77-35 104-16 9-40 9z"/><glyph glyph-name="eacute" unicode="é" horiz-adv-x="478" d="M464 213q5 22 9 52 9 99-31 163-44 72-135 72-88 0-152-68-66-70-78-189-12-113 43-187 53-70 139-70 73 0 129 45 56 44 72 114H349q-8-31-30-46t-51-15q-48 0-69.5 36T182 213h282zm-10 460L190 569l-19 77 256 132zm-81-383H190q9 49 37 81t72 32 61.5-32.5T373 290z"/><glyph glyph-name="ecircumflex" unicode="ê" horiz-adv-x="478" d="M274 84q64 0 82 61h110q-16-69-71-114-56-45-130-45-86 0-139 70-55 74-43 187 12 119 78 189 64 68 152 68 92 0 136-72 50-80 21-215H188q-5-57 16.5-93T274 84zm232 545l-77-61-110 101-130-101-63 61 204 162zM305 403q-44 0-72-32t-37-81h183q7 78-35 104-15 9-39 9z"/><glyph glyph-name="edieresis" unicode="ë" horiz-adv-x="478" d="M182 213q-5-57 16.5-93T268 84q29 0 51 15t30 46h111q-16-70-72-114-56-45-129-45-86 0-139 70-55 74-43 187 12 119 78 189 64 68 152 68 91 0 135-72 51-82 22-215H182zm116 190q-43 0-71-32t-37-81h183q7 77-35 104-16 9-40 9zM175.5 632.5q-16.5 18.5-14 48t22.5 49 48.5 19.5 45-19.5 14-49-23.5-48-48.5-18.5-44 18.5zM338 681q2 29 22.5 49t49 20 44-20 13-49-21.5-47.5-47.5-18.5-45.5 18.5-14 47.5z"/><glyph glyph-name="igrave" unicode="ì" horiz-adv-x="298" d="M139 488h109L202 0H93zm-21 279l231-132-36-76L69 662z"/><glyph glyph-name="iacute" unicode="í" horiz-adv-x="298" d="M93 0h109l46 488H139zm256 662L85 559l-19 76 256 132z"/><glyph glyph-name="icircumflex" unicode="î" horiz-adv-x="298" d="M139 488h109L202 0H93zm256 131l-76-61-111 100L78 558l-63 61 205 161z"/><glyph glyph-name="idieresis" unicode="ï" horiz-adv-x="298" d="M141 488h109L204 0H95zM73 632.5q-16 18.5-13.5 48t22.5 49 49 19.5 45-19.5 13.5-49-23-48-49-18.5T73 632.5zM236 681q2 29 22.5 49t49 20 44.5-20 13.5-49-22-47.5-48-18.5-45.5 18.5-14 47.5z"/><glyph glyph-name="ntilde" unicode="ñ" horiz-adv-x="563" d="M375 500q-94 0-147-95l-4 82h-95L83 0h110l20 216q8 88 42 131t76 43 62-26.5 15-79.5L382 0h110l26 284q13 155-73 200-29 16-70 16zm-90 145q-32 0-60-50l-41 29q17 63 46.5 97t64.5 34q24 0 54-18.5t41.5-24.5 22.5-6q29 0 52 49l42-34q-22-85-73-117-16-9-31.5-9t-30.5 7-37 20q-37 23-50 23z"/><glyph glyph-name="ograve" unicode="ò" horiz-adv-x="511" d="M314 500q45 0 82.5-15.5T460 437q56-68 44-195-11-122-81-192-64-64-156-64-95 0-147 64-55 69-43 192 11 126 80 195 63 63 157 63zm64-143.5Q355 394 308.5 394t-80-37.5T187 243t16-113.5T273 92t79.5 37.5 41 113.5T378 356.5zM238 767l231-132-36-76-244 103z"/><glyph glyph-name="oacute" unicode="ó" horiz-adv-x="511" d="M314 500q-44 0-84.5-15.5T157 437q-69-69-80-195-12-123 43-192 52-64 147-64 92 0 156 64 70 70 81 192 12 127-44 195-51 63-146 63zm-85.5-143.5q33.5 37.5 80 37.5t69.5-37.5T393.5 243t-41-113.5T273 92t-70 37.5T187 243t41.5 113.5zM470 662L206 559l-20 76 256 132z"/><glyph glyph-name="ocircumflex" unicode="ô" horiz-adv-x="511" d="M314 500q45 0 82.5-15.5T460 437q56-68 44-195-11-122-81-192-64-64-156-64-95 0-147 64-55 69-43 192 11 126 80 195 63 63 157 63zm64-143.5Q355 394 308.5 394t-80-37.5T187 243t16-113.5T273 92t79.5 37.5 41 113.5T378 356.5zM516 619l-77-61-110 100-130-100-63 61 204 161z"/><glyph glyph-name="otilde" unicode="õ" horiz-adv-x="511" d="M314 500q-44 0-84.5-15.5T157 437q-69-69-80-195-12-123 43-192 52-64 147-64 93 0 157 64 69 70 80 192 12 127-44 195-51 63-146 63zm-85.5-143.5q33.5 37.5 80 37.5t69.5-37.5T393.5 243t-41-113.5T273 92t-70 37.5T187 243t41.5 113.5zM269 645q-32 0-60-50l-41 29q17 63 46.5 97t64.5 34q24 0 54-18.5t41.5-24.5 22.5-6q29 0 52 49l42-34q-22-85-73-117-16-9-31.5-9t-30.5 7-37 20q-37 23-50 23z"/><glyph glyph-name="odieresis" unicode="ö" horiz-adv-x="511" d="M314 500q45 0 82.5-15.5T460 437q56-68 44-195-11-122-80-192-64-64-157-64-95 0-147 64-55 69-43 192 11 126 80 195 63 63 157 63zm64-143.5Q355 394 308.5 394t-80-37.5T187 243t16-113.5T273 92t79.5 37.5 41 113.5T378 356.5zm-186.5 276q-16.5 18.5-14 48t22.5 49 49 19.5 45-19.5 13.5-49-22.5-48-48.5-18.5-45 18.5zM355 681q2 29 22 49t48.5 20 45-20 14-49-22.5-47.5-48.5-18.5-45.5 18.5-13 47.5z"/><glyph glyph-name="ugrave" unicode="ù" horiz-adv-x="566" d="M386 86Q336-9 245-9 128-9 101 91q-10 35-5 86l30 311h109l-29-298q-4-47 14.5-70t59-23 77.5 39.5T402 256l22 232h110L489 0H378zM259 785l231-131-36-77-244 103z"/><glyph glyph-name="uacute" unicode="ú" horiz-adv-x="566" d="M249-9q91 0 141 95l-8-86h111l45 488H428l-22-232q-8-80-45-119.5T283 97q-81 0-73 93l29 298H130l-30-311q-9-95 35-143Q173-9 249-9zm246 689L231 577l-20 77 256 131z"/><glyph glyph-name="ucircumflex" unicode="û" horiz-adv-x="566" d="M386 86Q336-9 245-9 128-9 101 91q-10 35-5 86l30 311h109l-29-298q-4-47 14.5-70t59-23 77.5 39.5T402 256l22 232h110L489 0H378zm151 551l-77-61-110 100-130-100-63 61 204 162z"/><glyph glyph-name="udieresis" unicode="ü" horiz-adv-x="566" d="M386 86Q336-9 245-9 128-9 101 91q-10 35-5 86l30 311h109l-29-298q-4-47 14.5-70t59-23 77.5 39.5T402 256l22 232h110L489 0H378zM210.5 632.5q-16.5 18.5-14 48t22.5 49 49 19.5 45.5-19.5T328 680q-4-29-24-47.5T255.5 614t-45 18.5zM374 681q2 29 22.5 49t49 20 44.5-20 13.5-49-22.5-47.5-48.5-18.5-45 18.5T374 681z"/><glyph glyph-name="dotlessi" unicode="ı" d="M129 488h110L193 0H83z"/><glyph glyph-name="apostrophe" unicode="ʼ" horiz-adv-x="218" d="M122.5 538q-16.5 18-14 48t26 51.5 61 21.5 58-32 15.5-78q-4-46-37-95-34-48-84-74l-76 46q74 41 91 88-24 6-40.5 24z"/><glyph glyph-name="circumflex" unicode="ˆ" horiz-adv-x="423" d="M474 756l-77-61-110 100-131-100-63 61 205 161z"/><glyph glyph-name="tilde" unicode="˜" horiz-adv-x="358" d="M193 782q-33 0-61-50l-40 29q17 62 46.5 96t64.5 34q22 0 63-23 38-25 55-25 29 0 52 48l42-34q-21-82-74-115-15-10-30.5-10t-30.5 7-37.5 20.5-31.5 18-18 4.5z"/><glyph glyph-name="endash" unicode="–" horiz-adv-x="476" d="M83 356h378l-11-107H73z"/><glyph glyph-name="emdash" unicode="—" horiz-adv-x="695" d="M83 356h597l-10-107H73z"/><glyph glyph-name="quoteleft" unicode="‘" horiz-adv-x="249" d="M216 396.5Q193 375 156 375t-57.5 32T83 486.5t39 94 87 74.5l72-48q-75-37-94-88 25-5 41.5-22.5t13.5-48-26-52z"/><glyph glyph-name="quoteright" unicode="’" horiz-adv-x="249" d="M131 634q23 21 59.5 21t57.5-32.5 16-80.5-40-93.5-86-73.5l-71 47q74 39 93 89-26 5-42.5 23t-13 48.5T131 634z"/><glyph glyph-name="rupeesymbol" unicode="₹" horiz-adv-x="546" d="M135 651h422l-6-68H388q48-36 57-93h97l-7-69h-93q-14-63-60.5-108T246 252L457 0H302L96 246l6 69h64q127 0 156 106H113l7 69h206q-6 42-38.5 67.5T192 583h-63z"/><glyph glyph-name="minus" unicode="−" horiz-adv-x="457" d="M420 356l-10-107H94l10 107h316z"/><glyph glyph-name="zero.propold" horiz-adv-x="516" d="M327 586q97 0 148-77 53-80 39-223-14-142-81-222-64-78-162-78-97 0-149 78-54 81-40 222 14 143 82 223 66 77 163 77zm65.5-156q-21.5 46-75 46T233 430t-41-144Q176 96 281 96q107 0 125 190 8 98-13.5 144z"/><glyph glyph-name="one.propold" horiz-adv-x="323" d="M294 574L240 0H129l41 428q-48-23-95-25l11 118q66 9 126 53h82z"/><glyph glyph-name="two.propold" horiz-adv-x="537" d="M328 480q-91 0-104-79H102q8 89 74 139 60 46 156 46 90 0 142-52 51-51 43.5-125.5T470 293t-122-63l-97-26q-72-21-76-69l-1-24h319L483 0H54l9 99q11 121 93 166 28 15 65 25l88 23q51 14 72.5 36t24.5 55-17 54.5-61 21.5z"/><glyph glyph-name="three.propold" horiz-adv-x="531" d="M75 399q37 187 236 187 94 0 146-50t44-127q-10-99-108-142 53-23 78-71t20-101.5-25-91T414-62q-68-58-170-58-97 0-155 52Q25-10 34 96h112q-2-60 29-86t81-26 84.5 31.5T380 95t-24.5 80-87.5 32h-60l9 96h57q50 0 81 24.5t36 68.5q2 38-21 63t-66 25-73-22.5-39-62.5H75z"/><glyph glyph-name="four.propold" horiz-adv-x="539" d="M477 577l-40-423h101l-9-106H427l-14-156H301l16 156H20l9 92 340 437h108zM149 140h181l25 259z"/><glyph glyph-name="five.propold" horiz-adv-x="532" d="M235 318q48 13 91 13t79.5-15.5T466 272q49-57 41-156-10-103-82-169.5T255-120q-85 0-139 55Q58-6 68 94h110q-5-51 20-76.5T268-8q78 0 116 74 11 22 13 50 5 55-23.5 85.5T280 232H112l62 353h347l-12-112H263z"/><glyph glyph-name="six.propold" horiz-adv-x="549" d="M441 471q-4 83-75 83-77 0-125-85-49-87-49-228 35 159 178 159 83 0 130-58 46-58 38-149-10-94-74-150-65-57-159-57-110 0-173 92-61 92-47 236 16 167 95 260 77 90 193 90 87 0 139-53 50-52 46-140H441zM334 300q-42 0-73.5-28T225 198q-4-43 22-72 24-28 67-28t74 27.5 36 74-21.5 73.5-68.5 27z"/><glyph glyph-name="seven.propold" horiz-adv-x="450" d="M490 586l-11-105-325-586H20l347 585H67l9 106h414z"/><glyph glyph-name="eight.propold" horiz-adv-x="585" d="M574 477q-5-49-39-87t-91-49l3-2q66-30 93-65 31-39 26-90.5T541.5 98 488 39q-74-53-190-53-112 0-176 54-63 54-55 136 7 61 49 98t102 45q-75 41-96 109-8 26-5 58 8 83 72 130.5T356 664t164.5-52.5T574 477zM309 277q-52-3-88-28.5T182 188q-4-40 34-66 34-24 98-24t99.5 19 38 46.5T440 208t-41 30zm-68 233q-10-13-12-33-4-38 53-63l64-29q42 0 76 24 34 25 37.5 62T433 531t-81 23q-77 0-111-44z"/><glyph glyph-name="nine.propold" horiz-adv-x="551" d="M332 586q55 0 99-30t71-79q52-97 39-239-16-169-92-263-76-95-187-95-90 0-144 57Q63-4 73 86h115q-2-45 19.5-69.5T268-8t66.5 18T382 61q45 72 54 222 1 17 1 34-26-111-113-143-27-10-62-10t-69.5 15.5T134 222q-51 59-43 151t74 153q66 60 167 60zm53-137q-24 31-71.5 31t-76-31-33-77.5 19-77.5 70.5-31 76.5 31.5 34 77.5-19.5 77z"/></font>
</defs>
</svg>
